# xmcd CD database file
#
# Track frame offsets:
#	150
#	15663
#	30342
#	47493
#	58988
#	80271
#	94574
#	109504
#	123215
#	134729
#	144043
#	159984
#
# Disc length: 2295 seconds
#
# Revision: 0
# Processed by: cddbd v1.5.2PL0 Copyright (c) Steve Scherf et al.
# Submitted via: ACXtractor (MTCDDB.DLL V2003.07.15)
#
DISCID=8a08f50c
DTITLE=Pete Smith - Born to the Bush
DYEAR=2014
DGENRE=Country
TTITLE0=Gotta Keep"er Rollin'
TTITLE1=Iron Bark Tree
TTITLE2=Walk with Me
TTITLE3=Smithy and the Flying Emu
TTITLE4=Every Road I Travel
TTITLE5=My Old Pocket Knife
TTITLE6=West of Winton
TTITLE7=A Little Piece of Heaven
TTITLE8=Born to the Bush
TTITLE9=Calvaary Way
TTITLE10=Ballad of Port Macquarie
TTITLE11=Silver Gypsy
EXTD=ID3G:   2 YEAR: 2014
EXTT0=
EXTT1=
EXTT2=
EXTT3=
EXTT4=
EXTT5=
EXTT6=
EXTT7=
EXTT8=
EXTT9=
EXTT10=
EXTT11=
PLAYORDER=
